<?xml version="1.0" encoding="UTF-8"?>
<svg id="svg1011" width="372" height="372" version="1.1" viewBox="0 0 372 372" xmlns="http://www.w3.org/2000/svg">
<style type="text/css">
	@keyframes rotatingCog {
		from { transform: rotate(0deg); }
		to { transform: rotate(360deg); }
	}
	.rotating-cog {
		animation-duration: 18s;
		animation-iteration-count: infinite;
		animation-name: rotatingCog;
		animation-play-state: paused;
		animation-timing-function: linear;
		fill: var(--bg-colour, #fff);
		stroke-width: 3px;
		stroke: var(--txt-colour, #000);
		transform-origin: center;
		transition: fill ease-in-out 0.3s;
	}
	.rotating-cog:hover {
		animation-play-state: running;
		fill: var(--txt-colour, #000);
	}
</style>
	<path id="cog" class="rotating-cog" d="m179.03 0.5-9.5137 11.338v23.904c0.2208 24.451-33.994 42.812-53.234 15.633l-12.924-20.111-14.135-4.3945-9.4277 6.0605-1.875 14.682 12.924 20.109c14.086 28.462-8.8051 52.643-36.332 41.932l-21.744-9.9316-14.268 3.9453-4.6562 10.195 6.3633 13.363 21.744 9.9316c27.179 12.328 18.844 51.912-7.8965 54.918l-23.662 3.4004-9.8691 11.031 1.5957 11.094 12.578 7.8047 23.66-3.4024c30.154-4.439 43.035 33.392 23.049 50.469l-18.066 15.654-2.3379 14.615 7.3398 8.4707 14.799-0.23633 18.066-15.654c25.783-18.985 54.059 5.8063 46.674 29.996l-6.7344 22.938 5.9336 13.559 10.754 3.1582 12.324-8.1992 6.7344-22.936c8.9339-28.349 48.17-26.309 55.482 0l6.7344 22.936 12.322 8.1992 10.754-3.1582 5.9356-13.559-6.7344-22.938c-7.3207-26.102 21.173-49.057 46.674-29.996l18.066 15.654 14.799 0.23633 7.3398-8.4707-2.3379-14.615-18.066-15.654c-20.383-19.286-6.1109-53.709 23.049-50.469l23.66 3.4024 12.578-7.8047 1.5938-11.094-9.8691-11.031-23.66-3.4004c-30.171-5.0616-32.425-43.289-7.8965-54.918l21.744-9.9316 6.3613-13.363-4.6562-10.195-14.266-3.9453-21.744 9.9316c-28.88 11.854-50.842-19.439-36.334-41.932l12.924-20.109-1.873-14.682-9.4277-6.0605-14.135 4.3945-12.924 20.111c-18.253 25.632-53.386 10.623-53.234-15.633v-23.904l-9.5137-11.338h-11.209zm5.6524 90.012a94.488 94.488 0 0 1 94.803 94.518 94.488 94.488 0 1 1-188.98 0 94.488 94.488 0 0 1 94.174-94.518z" />
</svg>
